<?xml version="1.0" encoding="UTF-8" standalone="no"?>
<svg
   xmlns:dc="http://purl.org/dc/elements/1.1/"
   xmlns:cc="http://creativecommons.org/ns#"
   xmlns:rdf="http://www.w3.org/1999/02/22-rdf-syntax-ns#"
   xmlns:svg="http://www.w3.org/2000/svg"
   xmlns="http://www.w3.org/2000/svg"
   viewBox="0 0 612.5 762.86249"
   height="762.86249"
   width="612.5"
   xml:space="preserve"
   version="1.1"
   id="svg2"><metadata
     id="metadata8"><rdf:RDF><cc:Work
         rdf:about=""><dc:format>image/svg+xml</dc:format><dc:type
           rdf:resource="http://purl.org/dc/dcmitype/StillImage" /><dc:title></dc:title></cc:Work></rdf:RDF></metadata><defs
     id="defs6"><clipPath
       id="clipPath18"
       clipPathUnits="userSpaceOnUse"><path
         id="path20"
         d="M 0,6102.92 0,0 l 4900,0 0,6102.92 -4900,0 z" /></clipPath><clipPath
       id="clipPath3410"
       clipPathUnits="userSpaceOnUse"><rect
         transform="scale(1,-1)"
         y="-9464.667"
         x="-161.6234"
         height="8288.0498"
         width="5417.6152"
         id="rect3412"
         style="fill:#0000ff;fill-rule:evenodd;stroke:#000000;stroke-width:8px;stroke-linecap:butt;stroke-linejoin:miter;stroke-opacity:1" /></clipPath></defs><g
     transform="matrix(1.25,0,0,-1.25,0,762.8625)"
     id="g10"><g
       clip-path="url(#clipPath3410)"
       transform="scale(0.1,0.1)"
       id="g12"><g
         id="g14"><g
           clip-path="url(#clipPath18)"
           id="g16"><path
             id="path22"
             style="fill:#ffffff;fill-opacity:1;fill-rule:nonzero;stroke:none"
             d="m 0,1182.92 4900,0 0,4920 -4900,0 0,-4920 z" /><path
             id="path24"
             style="fill:#f2561a;fill-opacity:1;fill-rule:nonzero;stroke:none"
             d="m 2647.77,6102.92 c -75.3,-33.88 -176.51,-79.43 -277.77,-125 -200,-90 -828.33,-354.99 -803.33,-804.99 25,-450.01 174.55,-607.47 593.33,-860.01 436.67,-263.33 1306.67,-650 1496.67,-780 190,-130 383.33,-295 288.33,-515 -95,-220 -380,-270 -560,-300 -180,-30 -370,-60 -580,-35 -210,25 -376.67,48.34 -371.67,-16.66 5,-65 1.67,-98.34 181.67,-258.34 168.11,-149.43 815.9,-909.37 1067.75,-1225 l 1217.25,0 0,4920 -2252.23,0 z M 2020,2352.92 c -95,105 -275,200 -210,370 65,170 615,175 835,160 220,-15 555,-55 640,125 85,180 45,325 -290,520 -328.67,191.31 -950,460 -1255,615 -305,155 -776.664,370 -810,970 -29.48,530.66 540.21,823.47 966.69,990 l -1896.69,0 0,-4920 3032.87,0 c -7.9,20.78 -21.63,42.47 -42.87,65 -165,175 -875,1000 -970,1105" /><path
             id="path26"
             style="fill:#f2561a;fill-opacity:1;fill-rule:nonzero;stroke:none"
             d="m 2566.67,922.09 c 0,0 -12.5,-115 -17.5,-160 -5,-45 -2.5,-290 17.5,-342.5 0,0 10,175 7.5,242.5 -2.5,67.5 10,212.5 -7.5,260" /><path
             id="path28"
             style="fill:#191716;fill-opacity:1;fill-rule:nonzero;stroke:none"
             d="m 2910.84,855.629 0,-152.5 86.04,0 c 43.12,0 74.78,6.16 94.96,18.5 20.15,12.34 30.25,31.492 30.25,57.441 0,27.192 -9.45,46.762 -28.34,58.668 -18.89,11.922 -50.7,17.891 -95.47,17.891 l -87.44,0 z m -73.75,56.25 159.08,0 c 69.49,0 120.55,-10.617 153.21,-31.848 32.63,-21.25 48.96,-54.359 48.96,-99.359 0,-30.703 -8.69,-56.113 -26.05,-76.192 -17.39,-20.082 -42.86,-34.531 -76.43,-43.359 l 118.93,-217.992 -81.86,0 -108.07,202.5 -114.02,0 0,-202.5 -73.75,0 0,468.75" /><path
             id="path30"
             style="fill:#191716;fill-opacity:1;fill-rule:nonzero;stroke:none"
             d="m 3294.18,911.879 77.94,0 0,-296.641 c 0,-43.117 9.54,-74.058 28.64,-92.769 19.08,-18.731 50.16,-28.09 93.19,-28.09 43.25,0 74.24,9.199 92.97,27.601 18.74,18.399 28.12,49.489 28.12,93.258 l 0,296.641 76.64,0 0,-310.84 c 0,-54.187 -17.22,-95.309 -51.59,-123.348 -34.41,-28.05 -84.67,-42.062 -150.79,-42.062 -64.2,0 -112.78,14.543 -145.72,43.641 -32.94,29.101 -49.4,72.011 -49.4,128.73 l 0,303.879" /><path
             id="path32"
             style="fill:#191716;fill-opacity:1;fill-rule:nonzero;stroke:none"
             d="m 3819.03,911.879 114.02,0 95.45,-266.399 c 5.7,-16 11.32,-32.769 16.91,-50.351 5.59,-17.578 11.11,-36.367 16.57,-56.348 4.99,16.41 10.43,33.461 16.38,51.129 5.92,17.68 12.44,35.981 19.58,54.918 l 96.88,267.051 107.96,0 0,-468.75 -70.2,0 0,404.051 -11.39,-33.461 c -14.26,-41.457 -22.33,-64.817 -24.23,-70.078 l -109.34,-300.512 -54.13,0 -108.64,300.832 c -0.47,1.25 -4.88,13.879 -13.18,37.871 -8.32,23.977 -15.79,45.777 -22.43,65.348 l 0,-404.051 -70.21,0 0,468.75" /><path
             id="path34"
             style="fill:#191716;fill-opacity:1;fill-rule:nonzero;stroke:none"
             d="m 4591.11,846.91 -73.14,-223.941 149.77,0 -70.67,223.941 -5.96,0 z m -47.24,54.969 102.54,0 158.55,-458.75 -76.64,0 -40.96,123.562 -187.24,0 -39.91,-123.562 -75.25,0 158.91,458.75" /><path
             id="path36"
             style="fill:#191716;fill-opacity:1;fill-rule:nonzero;stroke:none"
             d="m 461.254,789.859 -74.59,-15.578 c -8.047,30.309 -22.051,53.078 -42.012,68.36 -19.961,15.25 -45.644,22.89 -77.031,22.89 -42.207,0 -74.863,-16.312 -97.969,-48.929 -23.105,-32.622 -34.648,-78.981 -34.648,-139.102 0,-59.691 11.797,-105.16 35.41,-136.391 23.594,-31.23 57.891,-46.828 102.852,-46.828 32.148,0 59.082,8.418 80.8,25.27 21.719,16.84 36.114,40.508 43.145,70.98 l 74.043,-15.781 c -14.336,-46.512 -38.359,-81.551 -72.051,-105.121 -33.711,-23.578 -76.582,-35.348 -128.652,-35.348 -70.664,0 -124.688,20.918 -162.031,62.77 -37.3442,41.84 -56.0161,102.269 -56.0161,181.289 0,76.871 19.2383,136.871 57.7341,180 38.496,43.121 91.973,64.691 160.41,64.691 51.075,0 92.715,-11.211 124.922,-33.621 32.207,-22.422 54.102,-55.601 65.684,-99.551" /><path
             id="path38"
             style="fill:#191716;fill-opacity:1;fill-rule:nonzero;stroke:none"
             d="m 722.09,859.859 -78.809,-231.828 161.387,0 -76.172,231.828 -6.406,0 z m -50.918,56.922 110.488,0 170.82,-475 -82.578,0 -44.121,128.75 -201.738,0 -42.988,-128.75 -81.075,0 171.192,475" /><path
             id="path40"
             style="fill:#191716;fill-opacity:1;fill-rule:nonzero;stroke:none"
             d="m 928.531,916.781 394.999,0 0,-60 -156.25,0 0,-415 -82.5,0 0,415 -156.249,0 0,60" /><path
             id="path42"
             style="fill:#191716;fill-opacity:1;fill-rule:nonzero;stroke:none"
             d="m 1599.25,863.031 c -46.04,0 -81.51,-15.922 -106.41,-47.742 -24.9,-31.828 -37.34,-77.219 -37.34,-136.168 0,-58.75 12.5,-104.039 37.54,-135.859 25.02,-31.832 60.43,-47.731 106.21,-47.731 45.78,0 81.17,16.008 106.21,48.039 25.02,32.039 37.54,77.231 37.54,135.551 0,58.75 -12.52,104.078 -37.54,136.02 -25.04,31.91 -60.43,47.89 -106.21,47.89 z m 0,60 c 69.63,0 124.74,-21.781 165.35,-65.332 40.59,-43.558 60.9,-103.129 60.9,-178.738 0,-75.172 -20.37,-134.742 -61.1,-178.731 -40.72,-43.98 -95.78,-65.949 -165.15,-65.949 -69.4,0 -124.46,21.93 -165.18,65.801 -40.72,43.867 -61.07,103.488 -61.07,178.879 0,75.609 20.29,135.18 60.9,178.738 40.58,43.551 95.7,65.332 165.35,65.332" /><path
             id="path44"
             style="fill:#191716;fill-opacity:1;fill-rule:nonzero;stroke:none"
             d="m 2000.28,859.281 0,-153.75 83.57,0 c 41.89,0 72.64,6.211 92.23,18.649 19.59,12.441 29.38,31.742 29.38,57.91 0,27.422 -9.18,47.129 -27.51,59.16 -18.36,12.012 -49.27,18.031 -92.74,18.031 l -84.93,0 z m -72.15,57.5 155.03,0 c 67.61,0 117.28,-10.781 149.06,-32.312 31.76,-21.52 47.65,-55.09 47.65,-100.699 0,-31.129 -8.47,-56.86 -25.4,-77.211 -16.93,-20.348 -41.75,-35.02 -74.48,-43.957 l 115.87,-220.821 -79.81,0 -105.02,205 -110.75,0 0,-205 -72.15,0 0,475" /><path
             id="path46"
             style="fill:#100f0d;fill-opacity:1;fill-rule:nonzero;stroke:none"
             d="m 613.129,140.25 86.262,0 -42.86,120.629 L 613.129,140.25 Z M 554.824,46.8594 639.98,275.57 l 33.844,0 85.156,-228.7106 -25.933,0 -27.223,74.9996 -99.316,0 -27.223,-74.9996 -24.461,0" /><path
             id="path48"
             style="fill:#100f0d;fill-opacity:1;fill-rule:nonzero;stroke:none"
             d="m 893.445,101.602 21.891,7.578 c 7.355,-16.3011 16.766,-28.3284 28.234,-36.1097 11.457,-7.7891 25.532,-11.6797 42.207,-11.6797 17.163,0 30.993,4.0703 41.473,12.211 10.48,8.1484 15.73,18.8672 15.73,32.1684 0,10.621 -3.43,19.359 -10.3,26.21 -6.87,6.86 -18.52,13.122 -34.946,18.79 -8.957,2.992 -20.816,6.601 -35.589,10.832 -14.778,4.218 -24.25,7.359 -28.418,9.437 -13.122,6.383 -22.438,13.191 -27.957,20.41 -5.516,7.211 -8.274,16.133 -8.274,26.742 0,18.981 6.922,33.899 20.781,44.77 13.856,10.879 32.922,16.32 57.203,16.32 21.575,0 39.39,-4.472 53.43,-13.383 14.03,-8.918 24.74,-22.597 32.09,-41.058 l -21.33,-5.719 c -6.75,14.231 -15.42,24.75 -26.03,31.551 -10.6,6.797 -23.695,10.207 -39.265,10.207 -15.082,0 -27.313,-3.66 -36.695,-10.988 -9.379,-7.309 -14.067,-16.852 -14.067,-28.602 0,-8.867 3.032,-16.34 9.102,-22.418 6.07,-6.09 15.476,-11.039 28.23,-14.851 4.907,-1.551 12.02,-3.661 21.34,-6.34 26.725,-7.629 43.955,-13.66 51.675,-18.09 12.39,-6.809 21.37,-14.258 26.95,-22.34 5.58,-8.102 8.37,-17.66 8.37,-28.699 0,-20.0002 -7.51,-35.9221 -22.53,-47.7815 -15.02,-11.8476 -35.35,-17.7773 -60.973,-17.7773 -23.05,0 -42.027,4.7383 -56.925,14.2266 -14.899,9.4804 -26.7,24.2695 -35.407,44.3832" /><path
             id="path50"
             style="fill:#100f0d;fill-opacity:1;fill-rule:nonzero;stroke:none"
             d="m 1210.92,101.602 21.89,7.578 c 7.36,-16.3011 16.77,-28.3284 28.23,-36.1097 11.46,-7.7891 25.54,-11.6797 42.21,-11.6797 17.17,0 30.99,4.0703 41.48,12.211 10.48,8.1484 15.72,18.8672 15.72,32.1684 0,10.621 -3.43,19.359 -10.3,26.21 -6.86,6.86 -18.51,13.122 -34.94,18.79 -8.96,2.992 -20.82,6.601 -35.59,10.832 -14.78,4.218 -24.25,7.359 -28.42,9.437 -13.12,6.383 -22.44,13.191 -27.95,20.41 -5.52,7.211 -8.28,16.133 -8.28,26.742 0,18.981 6.92,33.899 20.78,44.77 13.86,10.879 32.93,16.32 57.2,16.32 21.58,0 39.39,-4.472 53.43,-13.383 14.04,-8.918 24.74,-22.597 32.1,-41.058 l -21.34,-5.719 c -6.74,14.231 -15.42,24.75 -26.02,31.551 -10.61,6.797 -23.7,10.207 -39.27,10.207 -15.08,0 -27.31,-3.66 -36.69,-10.988 -9.38,-7.309 -14.07,-16.852 -14.07,-28.602 0,-8.867 3.03,-16.34 9.1,-22.418 6.07,-6.09 15.48,-11.039 28.23,-14.851 4.91,-1.551 12.02,-3.661 21.34,-6.34 26.73,-7.629 43.96,-13.66 51.68,-18.09 12.38,-6.809 21.36,-14.258 26.94,-22.34 5.58,-8.102 8.37,-17.66 8.37,-28.699 0,-20.0002 -7.51,-35.9221 -22.53,-47.7815 -15.02,-11.8476 -35.34,-17.7773 -60.97,-17.7773 -23.05,0 -42.02,4.7383 -56.92,14.2266 -14.9,9.4804 -26.7,24.2695 -35.41,44.3832" /><path
             id="path52"
             style="fill:#100f0d;fill-opacity:1;fill-rule:nonzero;stroke:none"
             d="m 1557.08,161.129 c 0,-30.918 7.18,-55.277 21.52,-73.0587 14.35,-17.7891 33.91,-26.6797 58.68,-26.6797 24.76,0 44.32,8.8906 58.67,26.6797 14.34,17.7817 21.52,42.1407 21.52,73.0587 0,31.043 -7.18,55.41 -21.52,73.152 -14.35,17.731 -33.91,26.598 -58.67,26.598 -24.77,0 -44.33,-8.867 -58.68,-26.598 -14.34,-17.742 -21.52,-42.109 -21.52,-73.152 z m -26.48,0 c 0,35.769 9.78,64.41 29.34,85.902 19.55,21.508 45.33,32.25 77.34,32.25 32,0 57.69,-10.742 77.06,-32.25 19.38,-21.492 29.06,-50.133 29.06,-85.902 0,-35.77 -9.68,-64.3985 -29.06,-85.8985 -19.37,-21.4922 -45.06,-32.2383 -77.06,-32.2383 -32.01,0 -57.79,10.7461 -77.34,32.2383 -19.56,21.5 -29.34,50.1285 -29.34,85.8985" /><path
             id="path54"
             style="fill:#100f0d;fill-opacity:1;fill-rule:nonzero;stroke:none"
             d="m 2085.15,115.82 c -6.25,-24.5309 -17.01,-42.8005 -32.27,-54.8083 -15.27,-12.0234 -35.41,-18.0195 -60.42,-18.0195 -32.87,0 -58.22,10.4375 -76.06,31.3164 -17.84,20.8711 -26.76,50.5824 -26.76,89.1524 0,37.309 8.92,66.051 26.76,86.211 17.84,20.137 43.19,30.219 76.06,30.219 23.17,0 42.14,-5.36 56.92,-16.071 14.78,-10.718 25.84,-27.218 33.2,-49.488 l -23.36,-4.641 c -6.87,17.731 -15.85,30.829 -26.94,39.27 -11.1,8.461 -24.87,12.687 -41.29,12.687 -23.91,0 -42.37,-8.628 -55.36,-25.898 -13,-17.27 -19.5,-41.828 -19.5,-73.691 0,-31.758 6.8,-56.457 20.41,-74.1488 13.61,-17.6797 32.62,-26.5196 57.02,-26.5196 18.14,0 32.92,4.8203 44.33,14.461 11.4,9.6406 19.74,24.3594 25.01,44.1484 l 22.25,-4.18" /><path
             id="path56"
             style="fill:#100f0d;fill-opacity:1;fill-rule:nonzero;stroke:none"
             d="m 2247.95,46.8594 25.1914,0 0,228.711 -25.1914,0 0,-228.711 z" /><path
             id="path58"
             style="fill:#100f0d;fill-opacity:1;fill-rule:nonzero;stroke:none"
             d="m 2490.38,140.25 86.26,0 -42.85,120.629 -43.41,-120.629 z m -58.3,-93.3906 85.16,228.7106 33.83,0 85.17,-228.7106 -25.94,0 -27.21,74.9996 -99.33,0 -27.22,-74.9996 -24.46,0" /><path
             id="path60"
             style="fill:#100f0d;fill-opacity:1;fill-rule:nonzero;stroke:none"
             d="m 2820,46.8594 0,210.3126 -80.56,0 0,18.398 186.5,0 0,-18.398 -80.56,0 0,-210.3126 -25.38,0" /><path
             id="path62"
             style="fill:#100f0d;fill-opacity:1;fill-rule:nonzero;stroke:none"
             d="m 3242.5,65.25 0,-18.3906 -161.67,0 0,228.7106 155.96,0 0,-18.398 -130.76,0 0,-80.113 94.65,0 0,-18.399 -94.65,0 0,-93.41 136.47,0" /><path
             id="path64"
             style="fill:#100f0d;fill-opacity:1;fill-rule:nonzero;stroke:none"
             d="m 3378.98,101.602 21.89,7.578 c 7.36,-16.3011 16.77,-28.3284 28.23,-36.1097 11.47,-7.7891 25.54,-11.6797 42.22,-11.6797 17.16,0 30.98,4.0703 41.47,12.211 10.48,8.1484 15.73,18.8672 15.73,32.1684 0,10.621 -3.44,19.359 -10.31,26.21 -6.86,6.86 -18.51,13.122 -34.94,18.79 -8.95,2.992 -20.82,6.601 -35.59,10.832 -14.78,4.218 -24.25,7.359 -28.41,9.437 -13.13,6.383 -22.44,13.191 -27.96,20.41 -5.52,7.211 -8.28,16.133 -8.28,26.742 0,18.981 6.93,33.899 20.79,44.77 13.85,10.879 32.92,16.32 57.2,16.32 21.58,0 39.38,-4.472 53.42,-13.383 14.05,-8.918 24.74,-22.597 32.1,-41.058 l -21.33,-5.719 c -6.75,14.231 -15.42,24.75 -26.03,31.551 -10.61,6.797 -23.7,10.207 -39.27,10.207 -15.08,0 -27.31,-3.66 -36.69,-10.988 -9.38,-7.309 -14.07,-16.852 -14.07,-28.602 0,-8.867 3.04,-16.34 9.1,-22.418 6.08,-6.09 15.48,-11.039 28.23,-14.851 4.91,-1.551 12.02,-3.661 21.34,-6.34 26.73,-7.629 43.96,-13.66 51.68,-18.09 12.38,-6.809 21.37,-14.258 26.95,-22.34 5.57,-8.102 8.36,-17.66 8.36,-28.699 0,-20.0002 -7.51,-35.9221 -22.52,-47.7815 -15.02,-11.8476 -35.35,-17.7773 -60.97,-17.7773 -23.06,0 -42.03,4.7383 -56.93,14.2266 -14.9,9.4804 -26.7,24.2695 -35.41,44.3832" /><path
             id="path66"
             style="fill:#100f0d;fill-opacity:1;fill-rule:nonzero;stroke:none"
             d="m 3738.95,46.8594 -14.54,0 0,29.3789 31.63,0 0,-30.9297 L 3733.43,0 l -15.09,0 20.61,46.8594" /><path
             id="path68"
             style="fill:#100f0d;fill-opacity:1;fill-rule:nonzero;stroke:none"
             d="m 4263.46,115.82 c -6.25,-24.5309 -17.01,-42.8005 -32.28,-54.8083 -15.27,-12.0234 -35.41,-18.0195 -60.42,-18.0195 -32.86,0 -58.21,10.4375 -76.05,31.3164 -17.84,20.8711 -26.76,50.5824 -26.76,89.1524 0,37.309 8.92,66.051 26.76,86.211 17.84,20.137 43.19,30.219 76.05,30.219 23.18,0 42.15,-5.36 56.93,-16.071 14.77,-10.718 25.84,-27.218 33.2,-49.488 l -23.36,-4.641 c -6.88,17.731 -15.86,30.829 -26.95,39.27 -11.1,8.461 -24.87,12.687 -41.29,12.687 -23.91,0 -42.37,-8.628 -55.35,-25.898 -13.01,-17.27 -19.51,-41.828 -19.51,-73.691 0,-31.758 6.81,-56.457 20.42,-74.1488 13.61,-17.6797 32.62,-26.5196 57.02,-26.5196 18.14,0 32.92,4.8203 44.32,14.461 11.4,9.6406 19.74,24.3594 25.01,44.1484 l 22.26,-4.18" /><path
             id="path70"
             style="fill:#100f0d;fill-opacity:1;fill-rule:nonzero;stroke:none"
             d="m 4430.48,161.129 c 0,-30.918 7.18,-55.277 21.52,-73.0587 14.35,-17.7891 33.91,-26.6797 58.67,-26.6797 24.77,0 44.33,8.8906 58.68,26.6797 14.34,17.7817 21.52,42.1407 21.52,73.0587 0,31.043 -7.18,55.41 -21.52,73.152 -14.35,17.731 -33.91,26.598 -58.68,26.598 -24.76,0 -44.32,-8.867 -58.67,-26.598 -14.34,-17.742 -21.52,-42.109 -21.52,-73.152 z m -26.49,0 c 0,35.769 9.79,64.41 29.34,85.902 19.56,21.508 45.34,32.25 77.34,32.25 32.01,0 57.7,-10.742 77.07,-32.25 19.38,-21.492 29.07,-50.133 29.07,-85.902 0,-35.77 -9.69,-64.3985 -29.07,-85.8985 -19.37,-21.4922 -45.06,-32.2383 -77.07,-32.2383 -32,0 -57.78,10.7461 -77.34,32.2383 -19.55,21.5 -29.34,50.1285 -29.34,85.8985" /><path
             id="path72"
             style="fill:#100f0d;fill-opacity:1;fill-rule:nonzero;stroke:none"
             d="m 4770.76,46.8594 31.2695,0 0,29.8398 -31.2695,0 0,-29.8398 z" /><path
             id="path74"
             style="fill:#100f0d;fill-opacity:1;fill-rule:nonzero;stroke:none"
             d="m 118.871,187.109 c 14.102,7.641 24.707,15.621 31.82,23.969 7.114,8.352 10.664,17.063 10.664,26.141 0,7.211 -2.91,13.191 -8.734,17.941 -5.824,4.731 -13.336,7.11 -22.527,7.11 -8.586,0 -15.606,-2.68 -21.063,-8.04 -5.457,-5.359 -8.179,-12.332 -8.179,-20.878 0,-6.493 1.343,-13.27 4.043,-20.332 2.695,-7.059 7.355,-15.7 13.976,-25.911 z M 178.461,81.9609 C 166.324,92.4688 154.672,104.379 143.52,117.68 132.359,130.98 121.633,145.77 111.332,162.059 95.1484,154.531 83.0664,146.16 75.0977,136.93 67.1289,127.711 63.1445,117.531 63.1445,106.391 c 0,-13.7113 5.2696,-24.9027 15.8164,-33.559 10.5469,-8.6523 24.2151,-12.9922 41.0161,-12.9922 10.05,0 19.89,1.8321 29.519,5.4922 9.625,3.6563 19.277,9.1992 28.965,16.6289 z m 12.695,-11.9101 c -10.426,-9.0703 -21.703,-15.8516 -33.844,-20.332 -12.136,-4.4883 -25.441,-6.7266 -39.91,-6.7266 -23.1754,0 -41.9098,5.8164 -56.1911,17.4687 -14.2812,11.6485 -21.4257,26.8477 -21.4257,45.6171 0,14.332 4.8437,27.352 14.5312,39.051 9.6836,11.703 24.707,22.551 45.0586,32.551 -7.7227,13.609 -13.0547,24.41 -16,32.402 -2.9414,7.988 -4.4141,15.129 -4.4141,21.406 0,14.133 4.8438,25.621 14.5313,34.492 9.6838,8.86 22.1918,13.301 37.5198,13.301 15.328,0 27.8,-4.031 37.429,-12.062 9.625,-8.039 14.434,-18.457 14.434,-31.239 0,-11.14 -3.922,-21.601 -11.766,-31.39 -7.851,-9.801 -21.093,-20.57 -39.726,-32.32 12.254,-18.872 23.047,-33.891 32.367,-45.079 9.316,-11.179 18.695,-20.652 28.141,-28.3707 7.355,9.0587 13.148,18.1917 17.382,27.3597 4.227,9.179 7.137,18.82 8.735,28.929 l 19.496,-2.168 c -1.719,-11.961 -5.149,-23.562 -10.301,-34.8 -5.148,-11.243 -12.015,-22.1019 -20.598,-32.6215 6.25,-5.5703 13.028,-10.1289 20.325,-13.6875 7.293,-3.5625 15.234,-6.1718 23.816,-7.8125 l 0,-19.3281 C 240.688,45 230.82,47.2188 221.133,51.3398 c -9.688,4.1211 -19.68,10.3594 -29.977,18.711" /></g></g></g></g></svg>