<?xml version="1.0" encoding="UTF-8" standalone="no"?>
<svg
   xmlns:dc="http://purl.org/dc/elements/1.1/"
   xmlns:cc="http://creativecommons.org/ns#"
   xmlns:rdf="http://www.w3.org/1999/02/22-rdf-syntax-ns#"
   xmlns:svg="http://www.w3.org/2000/svg"
   xmlns="http://www.w3.org/2000/svg"
   xmlns:sodipodi="http://sodipodi.sourceforge.net/DTD/sodipodi-0.dtd"
   xmlns:inkscape="http://www.inkscape.org/namespaces/inkscape"
   viewBox="0 0 612.5 762.86249"
   height="762.86249"
   width="612.5"
   xml:space="preserve"
   version="1.1"
   id="svg2"
   inkscape:version="0.91 r13725"
   sodipodi:docname="logo.svg"><sodipodi:namedview
     pagecolor="#ffffff"
     bordercolor="#666666"
     borderopacity="1"
     objecttolerance="10"
     gridtolerance="10"
     guidetolerance="10"
     inkscape:pageopacity="0"
     inkscape:pageshadow="2"
     inkscape:window-width="1072"
     inkscape:window-height="674"
     id="namedview40"
     showgrid="false"
     inkscape:zoom="0.30936113"
     inkscape:cx="16.541124"
     inkscape:cy="381.43124"
     inkscape:window-x="102"
     inkscape:window-y="22"
     inkscape:window-maximized="0"
     inkscape:current-layer="svg2" /><metadata
     id="metadata8"><rdf:RDF><cc:Work
         rdf:about=""><dc:format>image/svg+xml</dc:format><dc:type
           rdf:resource="http://purl.org/dc/dcmitype/StillImage" /><dc:title></dc:title></cc:Work></rdf:RDF></metadata><defs
     id="defs6"><clipPath
       id="clipPath18"
       clipPathUnits="userSpaceOnUse"><path
         id="path20"
         d="M 0,6102.92 0,0 l 4900,0 0,6102.92 -4900,0 z" /></clipPath><clipPath
       id="clipPath3410"
       clipPathUnits="userSpaceOnUse"><rect
         transform="scale(1,-1)"
         y="-9464.667"
         x="-161.6234"
         height="8288.0498"
         width="5417.6152"
         id="rect3412"
         style="fill:#0000ff;fill-rule:evenodd;stroke:#000000;stroke-width:8px;stroke-linecap:butt;stroke-linejoin:miter;stroke-opacity:1" /></clipPath></defs><g
     transform="matrix(1.25,0,0,-1.25,0,762.8625)"
     id="g10"><g
       clip-path="url(#clipPath3410)"
       transform="scale(0.1,0.1)"
       id="g12"><g
         id="g14"><g
           clip-path="url(#clipPath18)"
           id="g16"><path
             id="path22"
             style="fill:#ffffff;fill-opacity:0;fill-rule:nonzero;stroke:none"
             d="m 0,1182.92 4900,0 0,4920 -4900,0 0,-4920 z"
             inkscape:connector-curvature="0" /><path
             id="path24"
             style="fill:#f2561a;fill-opacity:1;fill-rule:nonzero;stroke:none"
             d="m 2647.77,6102.92 c -75.3,-33.88 -176.51,-79.43 -277.77,-125 -200,-90 -828.33,-354.99 -803.33,-804.99 25,-450.01 174.55,-607.47 593.33,-860.01 436.67,-263.33 1306.67,-650 1496.67,-780 190,-130 383.33,-295 288.33,-515 -95,-220 -380,-270 -560,-300 -180,-30 -370,-60 -580,-35 -210,25 -376.67,48.34 -371.67,-16.66 5,-65 1.67,-98.34 181.67,-258.34 168.11,-149.43 815.9,-909.37 1067.75,-1225 l 1217.25,0 0,4920 -2252.23,0 z M 2020,2352.92 c -95,105 -275,200 -210,370 65,170 615,175 835,160 220,-15 555,-55 640,125 85,180 45,325 -290,520 -328.67,191.31 -950,460 -1255,615 -305,155 -776.664,370 -810,970 -29.48,530.66 540.21,823.47 966.69,990 l -1896.69,0 0,-4920 3032.87,0 c -7.9,20.78 -21.63,42.47 -42.87,65 -165,175 -875,1000 -970,1105" /></g></g></g></g></svg>